<?xml version="1.0" encoding="UTF-8" standalone="no"?>
<!-- Created with Inkscape (http://www.inkscape.org/) -->

<svg
   width="76.095184mm"
   height="24.520742mm"
   viewBox="0 0 76.095184 24.520742"
   version="1.1"
   id="svg1"
   xml:space="preserve"
   xmlns="http://www.w3.org/2000/svg"
   xmlns:svg="http://www.w3.org/2000/svg"><defs
     id="defs1" /><g
     id="layer1"
     transform="translate(-25.424266,-254.70226)"><path
       id="rect2-7-6"
       style="fill:#ffffff;fill-opacity:1;stroke:#00325b;stroke-width:0;stroke-dasharray:none;stroke-opacity:1"
       d="m 90.501809,254.70227 -11.017325,2.64841 1.539653,13.75194 9.416087,7.94452 9.416427,-7.94452 1.662799,-13.75194 z m -1.397767,2.72301 0.07567,9.22789 -6.440102,-1.69334 -0.635562,-5.72614 z m 2.869049,0 7.00002,1.80841 -0.635217,5.72614 -6.440456,1.69334 z m -9.121923,10.06473 6.358099,2.19163 0.04542,5.1279 v 0 l -6.113862,-4.93858 z m 15.374809,0 -0.289645,2.38095 -6.113517,4.93858 0.04542,-5.1279 z" /><path
       style="font-weight:900;font-size:53.3333px;font-family:Arial;-inkscape-font-specification:'Arial, Heavy';text-align:center;text-anchor:middle;white-space:pre;fill:#ffffff;stroke-width:0.264999"
       d="m 25.424266,257.34728 h 5.842878 c 0.973812,0 1.720249,0.24116 2.239312,0.72347 0.523652,0.48231 0.785481,1.07946 0.785481,1.79145 0,0.59715 -0.186036,1.10932 -0.558106,1.53651 -0.248047,0.28479 -0.610931,0.50987 -1.08865,0.67524 0.725766,0.17455 1.258607,0.47542 1.598523,0.90261 0.344509,0.4226 0.516765,0.95544 0.516765,1.59853 0,0.52365 -0.121726,0.99448 -0.36518,1.41248 -0.243454,0.41801 -0.57648,0.74874 -0.999077,0.99219 -0.261827,0.15158 -0.656865,0.26183 -1.185111,0.33073 -0.702802,0.0919 -1.169038,0.1378 -1.39871,0.1378 h -5.388125 z m 3.148814,3.96186 h 1.357368 c 0.486907,0 0.824526,-0.0827 1.012857,-0.24805 0.192923,-0.16996 0.289388,-0.41341 0.289388,-0.73036 0,-0.29398 -0.09646,-0.52365 -0.289388,-0.68902 -0.188331,-0.16536 -0.51906,-0.24804 -0.992188,-0.24804 H 28.57308 Z m 0,3.96874 h 1.591635 c 0.537432,0 0.916393,-0.0942 1.13688,-0.28249 0.220486,-0.19293 0.33073,-0.45016 0.33073,-0.7717 0,-0.29858 -0.110244,-0.53744 -0.33073,-0.71658 -0.215894,-0.18374 -0.597151,-0.27561 -1.143772,-0.27561 H 28.57308 Z m 14.02842,-7.9306 h 3.114365 v 6.02202 c 0,0.59715 -0.09417,1.16215 -0.282498,1.69499 -0.183737,0.52825 -0.475422,0.99219 -0.875054,1.39182 -0.395039,0.39503 -0.810747,0.67294 -1.247124,0.83371 -0.606335,0.22508 -1.3344,0.33762 -2.184188,0.33762 -0.491501,0 -1.028936,-0.0344 -1.612302,-0.10335 -0.578776,-0.0689 -1.063387,-0.20441 -1.45383,-0.40653 -0.390446,-0.2067 -0.748734,-0.49839 -1.07487,-0.87505 -0.321543,-0.37666 -0.542031,-0.76481 -0.661458,-1.16444 -0.192927,-0.64308 -0.289388,-1.21267 -0.289388,-1.70877 v -6.02202 h 3.114365 v 6.16672 c 0,0.55121 0.151582,0.983 0.454753,1.29535 0.30776,0.30776 0.732655,0.46165 1.274683,0.46165 0.537435,0 0.957736,-0.15159 1.260903,-0.45476 0.307761,-0.30776 0.461643,-0.74184 0.461643,-1.30224 z m 5.181422,0 h 3.121253 v 7.61366 h 4.871363 v 2.48735 h -7.992616 z m 9.411994,0 h 3.121255 v 7.61366 h 4.871363 v 2.48735 h -7.992618 z m 7.303598,0 h 3.465764 l 2.039495,3.41064 2.039496,-3.41064 h 3.445095 l -3.927407,5.87044 v 4.23057 h -3.128145 v -4.23057 z m -39.051221,11.59556 h 5.84288 c 0.97381,0 1.72025,0.24116 2.23931,0.72347 0.52365,0.48231 0.78548,1.07946 0.78548,1.79145 0,0.59715 -0.18604,1.10932 -0.55811,1.53651 -0.24804,0.28479 -0.61093,0.50987 -1.08864,0.67524 0.72576,0.17455 1.2586,0.47542 1.59852,0.90261 0.34451,0.4226 0.51676,0.95544 0.51676,1.59853 0,0.52365 -0.12173,0.99448 -0.36518,1.41248 -0.24345,0.41801 -0.57648,0.74874 -0.99907,0.99219 -0.26183,0.15158 -0.65687,0.26183 -1.18512,0.33073 -0.7028,0.0919 -1.16903,0.1378 -1.3987,0.1378 h -5.38813 z m 3.14881,3.96186 h 1.35737 c 0.48691,0 0.82453,-0.0827 1.01286,-0.24805 0.19292,-0.16996 0.28939,-0.41341 0.28939,-0.73036 0,-0.29398 -0.0965,-0.52365 -0.28939,-0.68902 -0.18833,-0.16536 -0.51906,-0.24804 -0.99219,-0.24804 h -1.37804 z m 0,3.96874 h 1.59164 c 0.53743,0 0.91639,-0.0942 1.13688,-0.28249 0.22048,-0.19293 0.33073,-0.45016 0.33073,-0.7717 0,-0.29858 -0.11025,-0.53744 -0.33073,-0.71658 -0.2159,-0.18374 -0.59715,-0.27561 -1.14377,-0.27561 h -1.58475 z m 7.82037,-7.9306 h 3.12125 v 7.61366 h 4.87137 v 2.48735 h -7.99262 z m 8.7781,5.0574 c 0,-1.64905 0.45934,-2.93293 1.37803,-3.85162 0.9187,-0.91869 2.19797,-1.37803 3.83784,-1.37803 1.6812,0 2.97656,0.45245 3.88606,1.35736 0.90951,0.90032 1.36426,2.16352 1.36426,3.7896 0,1.18052 -0.19981,2.14974 -0.59945,2.90766 -0.39503,0.75333 -0.96922,1.34129 -1.72254,1.76389 -0.74874,0.41801 -1.6835,0.62701 -2.80431,0.62701 -1.13917,0 -2.08313,-0.18144 -2.83187,-0.54433 -0.74414,-0.36288 -1.34817,-0.93706 -1.81211,-1.72254 -0.46394,-0.78548 -0.69591,-1.76848 -0.69591,-2.949 z m 3.12125,0.0138 c 0,1.01975 0.18833,1.75241 0.565,2.19797 0.38125,0.44557 0.89802,0.66835 1.55029,0.66835 0.67064,0 1.1897,-0.21819 1.55718,-0.65457 0.36748,-0.43638 0.55122,-1.21956 0.55122,-2.34955 0,-0.95085 -0.19293,-1.64446 -0.57878,-2.08084 -0.38126,-0.44097 -0.90032,-0.66146 -1.55718,-0.66146 -0.6293,0 -1.13459,0.22279 -1.51584,0.66835 -0.38126,0.44557 -0.57189,1.18282 -0.57189,2.21175 z m 15.75097,0.90262 2.7354,0.82682 c -0.18373,0.76711 -0.47312,1.40789 -0.86816,1.92236 -0.39504,0.51447 -0.88654,0.90261 -1.4745,1.16444 -0.58337,0.26183 -1.32751,0.39274 -2.23242,0.39274 -1.09784,0 -1.99586,-0.15847 -2.69406,-0.47542 -0.69362,-0.32154 -1.29306,-0.88424 -1.79834,-1.6881 -0.50528,-0.80385 -0.75792,-1.83278 -0.75792,-3.0868 0,-1.67202 0.44327,-2.95589 1.3298,-3.85161 0.89113,-0.90032 2.14974,-1.35048 3.77583,-1.35048 1.27238,0 2.27146,0.25723 2.99723,0.7717 0.73036,0.51447 1.27238,1.30454 1.62608,2.37023 l -2.75607,0.61322 c -0.0965,-0.30776 -0.19752,-0.53284 -0.30317,-0.67523 -0.17455,-0.23887 -0.38815,-0.42261 -0.64079,-0.55122 -0.25264,-0.12862 -0.53514,-0.19293 -0.84749,-0.19293 -0.70739,0 -1.24942,0.2848 -1.62609,0.85439 -0.28479,0.42259 -0.42719,1.08635 -0.42719,1.99126 0,1.12081 0.16996,1.89021 0.50988,2.30821 0.33991,0.41341 0.81763,0.62012 1.43315,0.62012 0.59716,0 1.04732,-0.16766 1.35048,-0.50298 0.30776,-0.33533 0.53055,-0.82223 0.66835,-1.46072 z m 4.26502,-5.97379 h 3.12126 v 3.81716 l 3.27284,-3.81716 h 4.14789 l -3.67936,3.81027 3.84472,6.29074 h -3.84472 l -2.12907,-4.15478 -1.6123,1.68809 v 2.46669 h -3.12126 z"
       id="text1-4-9"
       aria-label="BULLY BLOCK" /></g></svg>
